Patient4_TMGait_0pt3_02_right_22_EMG.mot
version=1
nRows=26
nColumns=33
inDegrees=no
endheader
time	1LAddLong	2LGlutMax	3LGlutMed	4LIliopsoas	5LSemiMemb	6LBicFemLong	7LRecFem	8LVastMed	9LVastLat	10LGasMed	11LTibAnt	12lTibPost	13LPeroneusLong	14LSol	15LExtDigLong	16LFlexDigLong	17RAddLong	18RGlutMax	19RGlutMed	20RIliopsoas	21RSemiMemb	22RBicFemLong	23RRecFem	24RVastMed	25RVastLat	26RGasMed	27RTibAnt	28RTibPost	29RPeroneusLong	30RSol	31RExtDigLong	32RFlexDigLong
43.515	0.010529	0.02243	0.010529	0.000458	0.032349	-0.12573	-0.070343	0.000153	-0.014954	0.004425	-0.055695	0.000763	-0.007629	0.12421	0.075073	0.000153	0.004578	-0.011139	0.50751	-0.0354	-0.009003	0.005646	-0.16571	-0.066376	-0.057678	-0.002747	0.036011	-0.002594	-0.014648	0.10681	0.014496	-0.009155
43.516	0.009918	0.019531	-0.018616	0.015869	-0.003052	-0.084076	-0.057983	0.003357	-0.029602	-0.000153	-0.17075	-0.003204	0.046844	0.083313	-0.082855	0.010376	0.005188	0.01709	-0.018005	0.013275	0.010986	0.079651	-0.2034	-0.016937	-0.079498	0.007782	0.039978	-0.002594	0.059357	0.12573	0.010529	-0.010681
43.517	0.006561	0.002289	-0.062408	-0.009613	0.006104	-0.112	-0.050507	0.003204	-0.012817	0.044098	-0.040588	-0.014801	-0.016327	0.036163	0.19989	-0.015564	-0.007324	-0.036926	-0.10147	0.001068	0.091553	0.088806	-0.21301	-0.015106	-0.032654	0.017242	0.03952	-0.002441	0.068665	0.12802	0.016937	-0.022583
43.518	-0.001221	0.024567	-0.052643	0.014496	0.028381	-0.050964	-0.047607	0.00351	0.050659	-0.051117	0.038147	-0.008392	-0.046387	0.066681	0.19073	-0.010681	0.016022	-0.042877	0.13016	-0.008545	0.041962	0.04303	-0.19333	-0.007172	-0.007324	0.011749	0.04425	0.001068	0.071259	0.09201	0.014038	-0.024261
43.519	0.011139	0.005798	0.024261	0.012207	0.021057	-0.008392	-0.022278	0.008392	0.12558	-0.02655	-0.021667	-0.00824	-0.055389	0.066681	-0.14862	-0.009003	0.027771	-0.069122	0.21347	0.007477	-0.097961	0.030518	-0.17059	-0.044556	-0.069885	0.002289	0.033722	-0.002594	0.07843	0.030823	0.010834	-0.007324
43.52	0.003662	0.055847	0.051575	0.012054	-0.019684	-0.002136	-0.013733	0.007324	0.15686	0.020447	-0.055847	-0.016327	-0.033722	0.036011	-0.17303	-0.021515	0.037231	-0.014038	0.1831	0.033417	-0.18127	0.1059	-0.1413	-0.052338	-0.065765	-0.000763	0.032043	-0.000153	0.04364	-0.002289	0.009918	-0.015564
43.521	0.023651	0.12207	0.000763	-0.009155	-0.050201	-0.06073	-0.023041	0.003052	0.14679	0.019989	-0.04364	-0.009308	-0.014801	0.06424	-0.094147	-0.020905	0.035553	-0.023956	0.17242	-0.002441	-0.031433	0.10651	-0.19943	-0.019073	-0.03891	0.001526	0.052643	-0.005493	-0.004425	-0.012054	0.020599	-0.015869
43.522	0.045929	0.13886	0.012817	0.006104	0.001526	-0.11917	-0.041046	-0.012207	0.053253	0.016785	-0.022125	-0.022278	-0.044861	0.084991	-0.040131	-0.019379	0.052185	-0.088654	0.051575	-0.09613	0.11795	0.036011	-0.19638	-0.015564	-0.05188	0.005798	0.01358	-0.000305	0.008087	0.011749	0.009003	-0.010071
43.523	0.054321	0.14999	-0.007935	0.01236	0.15762	-0.077057	-0.020905	-0.012512	-0.014801	0.009613	0.001068	-0.013275	-0.065613	0.036621	-0.075073	-0.024719	0.006866	-0.016022	0.13382	-0.05722	-0.27878	0.039978	-0.19577	0.06073	-0.027924	0.00473	0.025482	-0.003967	-0.037231	0.009613	0.004272	-0.007935
43.524	0.018158	0.14252	-0.018768	-0.001831	0.12405	-0.04425	-0.006104	-0.01297	-0.042877	0.014954	0.002289	-0.021973	-0.090332	0.030975	-0.046692	-0.014954	-0.024109	0.018005	0.20401	-0.015717	-0.27252	0.044861	-0.24231	0.10498	-0.042572	0.016632	0.035095	-0.004425	-0.037079	0.073395	0.001831	-0.01297
43.525	0.032501	0.12955	-0.0354	0.001221	0.018311	0.022278	-0.002289	0.006104	-0.028992	0.003204	0.002747	-0.023041	-0.082245	0.029297	-0.017853	-0.037079	-0.022888	-0.012665	0.21576	0.037537	0.083771	0.067749	-0.23544	-0.000305	-0.059967	0.020294	0.02594	-0.003357	0.017548	-0.000458	0.009308	-0.012512
43.526	-0.000458	0.16922	-0.001678	0.00473	-0.071869	0.045624	-0.001221	0.004425	0.005798	-0.012665	-0.001221	-0.013885	-0.087128	0.02243	-0.003662	-0.024567	-0.025024	0.002899	0.18845	0.10971	0.096436	0.19608	-0.23941	0.007172	-0.041351	0.023346	0.046997	-0.003357	-0.048981	-0.052032	0.010529	-0.011444
43.527	-0.003052	0.1503	-0.008392	0.009003	-0.1149	0.000305	-0.009766	0.007629	-0.00351	-0.012054	-0.019073	-0.014801	-0.084229	0.008392	0.00885	-0.031128	-0.038452	-0.039215	0.15518	0.1535	0.001221	0.24414	-0.23224	0.026703	-0.053253	0.019836	0.050201	-0.001984	-0.20813	-0.031586	0.003662	-0.00473
43.528	0.007172	0.12955	-0.010529	0.012665	-0.15396	-0.00412	-0.010529	0.00473	-0.017395	-0.011444	-0.023499	-0.009308	-0.07782	0.028687	0.020294	-0.042267	-0.014191	-0.00473	0.06134	0.12466	-0.041046	0.20767	-0.22553	-0.014496	-0.050049	0.014496	0.037079	-0.007629	-0.36377	0.092773	0.00412	-0.01358
43.529	0.023804	0.14832	0.001984	-0.003357	-0.096436	-0.030975	-0.037079	0.004578	-0.006561	-0.007019	-0.012665	-0.013733	-0.077667	0.023804	0.029755	-0.028839	-0.009766	-0.066528	0.055084	0.014191	-0.088501	0.13916	-0.26154	-0.021515	-0.047302	-0.019989	0.033112	-0.00412	-0.56763	0.22125	0.000153	-0.013733
43.53	0.025177	0.12528	0.070953	-0.001373	0.005646	-0.036011	-0.037384	0	0.003815	-0.005035	-0.007477	-0.012207	-0.090179	0.0177	0.024719	-0.030975	-0.003204	-0.040131	0.063171	-0.16144	0.022736	-0.00061	-0.26596	-0.016022	-0.041046	-0.042114	0.03479	-0.008545	-0.46555	0.23025	0.007629	-0.008545
43.531	0.026245	0.11536	0.069427	-0.011597	0.16159	0.013275	-0.040741	-0.007782	0.015411	-0.008698	0.001984	-0.007629	-0.11154	0.025635	0.018311	-0.025024	0.002289	-0.06897	0.10834	-0.24185	-0.027161	-0.17151	-0.21729	-0.11597	-0.058289	-0.062103	0.013275	-0.00946	-0.33966	0.10666	0.011749	-0.011292
43.532	0.027924	0.16129	0.026398	0.000763	0.15442	0.039673	-0.014343	-0.000458	-0.001221	-0.00061	-0.001678	-0.008087	-0.1236	0.026855	0.016022	-0.0383	0.006714	-0.049286	0.13031	-0.18066	-0.096741	-0.15137	-0.21927	-0.16571	-0.052338	-0.10849	-0.008392	-0.007324	0.058746	0.10147	0.004883	0.007019
43.533	0.006866	0.12314	0.051727	0.018616	0.10452	0.075073	0.023346	0.005341	-0.011292	-0.001526	0.006714	-0.013885	-0.112	0.029297	0.019379	-0.025024	0.027161	-0.004578	0.15411	-0.13458	-0.17868	-0.023499	-0.22476	-0.1268	-0.049133	-0.067444	-0.037537	-0.012054	0.40268	0.11124	0.002441	-0.004272
43.534	-0.00351	0.12299	0.011292	0.005493	0.044861	0.11017	0.036011	0.005341	-0.016327	0.005493	0.003204	-0.004425	-0.10284	0.011444	0.023193	-0.024261	0.043793	-0.027161	0.043335	0.013123	-0.099335	0.042725	-0.23377	-0.12222	-0.050049	0.021667	0.005646	-0.021515	0.42419	0.062866	0.014038	-0.009308
43.535	-0.003967	0.11597	0.004883	0.00473	0.009003	0.056305	0.028229	0.019073	-0.010223	0.007782	0.010223	-0.010681	-0.11978	-0.003967	0.017395	-0.026855	0.02182	-0.045166	0.018616	0.29968	0.11169	-0.036316	-0.31418	-0.034332	-0.025177	0.094147	0.053253	0.020447	0.34775	0.032043	0.004578	-0.006866
43.536	0.003967	0.11597	0.037079	0.00473	-0.007629	-0.028992	0.056305	0.055542	-0.024872	0.001526	0.007477	-0.001984	-0.10284	-0.004425	0.018463	-0.02594	0.006409	0.029907	0.006256	0.46539	0.14496	-0.17029	-0.27771	-0.037231	-0.029907	0.079498	0.057526	0.009613	0.14526	-0.26718	0.004425	-0.02243
43.537	0.004578	0.080872	0.05722	0.014954	-0.011444	-0.068054	0.042419	0.030518	-0.063019	0.00824	-0.003052	-0.006714	-0.083466	0.002747	0.016785	-0.037994	0.033875	0.011292	0.020752	0.29877	0.003357	-0.26321	-0.29999	-0.07843	-0.03418	0.016479	0.084839	0.019531	-0.096893	-0.54123	0.003357	-0.020447
43.538	0.009155	0.076294	0.042267	0.01297	0.0354	-0.041199	-0.002899	0.011444	-0.054321	-0.005493	0.009308	-0.016785	-0.08316	0.00061	0.010681	-0.020599	0.026398	-0.064697	0.078735	0.14984	-0.34561	-0.1004	-0.27802	-0.14069	-0.039673	-0.02121	0.07309	0.009003	-0.16174	-0.6369	0.005646	-0.011139
43.539	-0.004272	0.054474	0.029449	0.002747	0.048523	0.010071	-0.043793	0.018158	-0.078125	0.006714	0.013275	-0.015564	-0.092316	0.001221	0.013885	-0.041351	-0.019531	-0.060272	0.23651	0.062561	-0.40955	0.068054	-0.26077	0.014038	-0.039673	-0.097046	0.016937	-0.065613	-0.10284	-0.60516	-0.000763	-0.0177
43.54	-0.014343	0.038147	0.028839	0.01236	-0.050964	0.028839	-0.092316	0.028534	-0.10437	0.001831	0.013733	-0.018158	-0.10422	-0.020905	0.04425	-0.02594	-0.043488	0.030212	0.066071	0.038605	0.016937	0.11414	-0.27679	0.036011	-0.028534	-0.059662	-0.009155	-0.14221	-0.31204	-0.60288	-0.001526	-0.018005
